# xmcd
#
# Track frame offsets: 
#        150
#        23995
#        48143
#        73788
#        95097
#        114883
#        136506
#        157867
#        181100
#        200346
#        219704
#        239262
#        258644
#        278125
#        298435
#        318407
#        335021
#
# Disc length: 4726 seconds
#
# Revision: 0
# Processed by: cddbd v1.5.2PL0 Copyright (c) Steve Scherf et al.
# Submitted via: ExactAudioCopy v1.0b1
#
DISCID=fc127411
DTITLE=龔玥 - 民歌紅 Disc 2
DYEAR=2001
DGENRE=民歌
TTITLE0=妻子辛苦了
TTITLE1=想起老媽媽
TTITLE2=未了情
TTITLE3=鼓浪嶼之波
TTITLE4=微山湖
TTITLE5=天竺少女
TTITLE6=愛拼オ會贏
TTITLE7=女兒情
TTITLE8=媽媽的吻
TTITLE9=紅星照我去戰鬥
TTITLE10=我和草原有個約定
TTITLE11=紅梅贊
TTITLE12=天涯歌女
TTITLE13=想家的時候
TTITLE14=草原夜色美
TTITLE15=血染的風采
TTITLE16=在那桃花盛開的地方
EXTD=
EXTT0=
EXTT1=
EXTT2=
EXTT3=
EXTT4=
EXTT5=
EXTT6=
EXTT7=
EXTT8=
EXTT9=
EXTT10=
EXTT11=
EXTT12=
EXTT13=
EXTT14=
EXTT15=
EXTT16=
PLAYORDER=
